<svg xmlns="http://www.w3.org/2000/svg" xmlns:xlink="http://www.w3.org/1999/xlink" viewBox="0 0 215.4 123.5" enable-background="new 0 0 215.4 123.5"><style type="text/css">.st0{clip-path:url(#SVGID_2_);} .st1{fill:#ABE1FD;} .st2{fill:#272726;} .st3{fill:#46BE46;} .st4{fill:#0061B7;} .st5{fill:#EA1300;} .st6{fill:#FFA105;}</style><g id="Calque_3"><defs><path id="SVGID_1_" d="M0 0h215.4v123.3H0z"/></defs><clipPath id="SVGID_2_"><use xlink:href="#SVGID_1_" overflow="visible"/></clipPath><g class="st0"><path d="M0 81.9h215.4v.4H0zM0 48h215.4v.4H0zM0 31h215.4v.4H0zM0 13.9h215.4v.4H0zM0 98.9h215.4v.4H0zM0 116.1h215.4v.4H0zM124.4 0h.4v123.6h-.4zM90.4 0h.4v123.6h-.4zM141.4 0h.4v123.6h-.4zM73.4 0h.4v123.6h-.4zM56.5 0h.4v123.6h-.4zM39.5 0h.4v123.6h-.4zM22.5 0h.4v123.6h-.4zM5.5 0h.4v123.6h-.4zM158.4 0h.4v123.6h-.4zM175.4 0h.4v123.6h-.4zM192.3 0h.4v123.6h-.4zM209.3 0h.4v123.6h-.4z" class="st1"/><path d="M0 64.8h215.4v.8H0zM107.2 0h.8v123.3h-.8zM124.2 64.2h.8v2.1h-.8zM141.2 64.2h.8v2.1h-.8zM90.2 64.2h.8v2.1h-.8zM56.3 64.2h.8v2.1h-.8zM158.2 64.2h.8v2.1h-.8zM175.2 64.2h.8v2.1h-.8zM192.2 64.2h.8v2.1h-.8zM209.1 64.2h.8v2.1h-.8zM39.3 64.2h.8v2.1h-.8zM22.3 64.2h.8v2.1h-.8zM73.3 64.2h.8v2.1h-.8zM73.3 64.1h.8v2.1h-.8zM106.5 81.8h2.1v.8h-2.1zM106.6 98.7h2.1v.8h-2.1zM106.5 47.8h2.1v.8h-2.1zM106.5 30.8h2.1v.8h-2.1zM106.5 13.8h2.1v.8h-2.1zM106.5 116h2.1v.8h-2.1zM193.5 69.1h-1.6v1.4c.2-.1.4-.2.7-.2.4 0 .6.1.9.4.2.3.3.6.3 1.1 0 .3-.1.6-.2.8-.1.2-.3.4-.5.6-.2.1-.5.2-.8.2-.3 0-.5-.1-.7-.2s-.4-.3-.6-.5l.4-.3c.1.1.3.3.4.3.1.1.3.1.5.1.3 0 .5-.1.6-.3.1-.2.2-.5.2-.8 0-.7-.3-1-.8-1-.1 0-.2 0-.3 0-.1 0-.2.1-.3.1h-.5v-2.4h2.3v.7zM126.9 68.6v4.7h-.6v-4l-1 .7-.3-.4 1.3-.9h.6zM105.3 45.6v4.7h-.6v-4l-1 .7-.3-.4 1.3-.9h.6zM105.2 69.1c.2.4.4 1 .4 1.8s-.1 1.4-.4 1.8c-.2.4-.6.6-1.1.6-.5 0-.8-.2-1.1-.6-.2-.4-.4-1-.4-1.8 0-1.6.5-2.4 1.4-2.4.6 0 1 .2 1.2.6zm-1.6.4c-.1.3-.2.8-.2 1.5s.1 1.2.2 1.5c.1.3.3.4.6.4s.5-.1.6-.4.2-.8.2-1.5-.1-1.2-.2-1.5c-.1-.3-.3-.4-.6-.4-.3-.1-.5.1-.6.4zM19 71v-.3h4.2v.3H19zM26.1 69.1h-1.6v1.4c.2-.1.4-.2.7-.2.4 0 .6.1.9.4.2.3.3.6.3 1.1 0 .3-.1.6-.2.8-.1.2-.3.4-.5.6-.2.1-.5.2-.8.2-.3 0-.5-.1-.7-.2-.2-.1-.4-.3-.6-.5l.4-.3c.1.1.3.3.4.3.1.1.3.1.5.1.3 0 .5-.1.6-.3.1-.2.2-.5.2-.8 0-.7-.3-1-.8-1-.1 0-.2 0-.3 0-.1 0-.2.1-.3.1h-.5v-2.4h2.3v.7z" class="st2"/><path d="M102.4 101.7c-6.2 0-11.1-3.9-17.8-9.3-6.1-4.9-13.6-10.9-24.9-16-33.4-14.2-84.6-10.7-85.1-10.6l-.1-.7c.5 0 51.9-3.6 85.5 10.6 11.4 5.2 19 11.2 25.1 16.1 6.6 5.3 11.4 9.1 17.3 9.1 10.7 0 18.5-34.6 23.9-105.7l.7.1c-5.5 72.6-13.3 106.4-24.6 106.4z" class="st3"/><path d="M116.2 88.6c-3.2 0-5.2-2.2-8-5.3-6.1-6.6-16.3-17.7-51.1-17.7-19.2 0-82 .2-82.7.2V65c.6 0 63.5-.2 82.7-.2 35.1 0 45.4 11.2 51.6 18 2.7 2.9 4.6 5 7.4 5 6.7 0 10.1-37 13.2-92.6h.7c-3.6 68.9-7.3 93.4-13.8 93.4z" class="st4"/><path d="M88 6.5c0-.1 0-.1 0-.1s.4.2.4.6c0 .7-1.2 1.4-2.3 1.4-2.3 0-2.3-2-2.3-2.4 0-2 1.9-3.6 3.7-3.6 1.2 0 1.7.6 1.7 1.2 0 .5-.8.9-1 .9.1-.1.2-.4.2-.7s-.3-1-1-1-2.7.6-2.7 3.2c0 1.9 1.3 2 1.5 2 1.5-.1 1.8-1.3 1.8-1.5zM91.3 9.6v.3h-.4v.8h-.4v-.8h-1.3v-.3l.9-2.1.4.1-.8 1.9h.9v-.8h.4v.8h.3z" class="st5"/><path d="M75.4 116.7c0-.1 0-.1 0-.1s.4.2.4.6c0 .7-1.2 1.4-2.3 1.4-2.3 0-2.3-2-2.3-2.4 0-2 1.9-3.6 3.7-3.6 1.2 0 1.7.6 1.7 1.2 0 .5-.8.9-1 .9.1-.1.2-.4.2-.7 0-.4-.3-1-1-1s-2.6.7-2.6 3.2c0 1.9 1.3 2 1.5 2 1.5-.1 1.7-1.3 1.7-1.5zM78 117.8c.1.1.2.2.3.3s.1.3.1.4c0 .2-.1.3-.2.5s-.3.2-.4.2c.2 0 .4.1.5.2.1.1.2.3.2.5s0 .3-.1.5c-.1.1-.2.3-.4.3-.2.1-.3.1-.6.1-.2 0-.4 0-.5-.1-.2-.1-.3-.2-.4-.3l.3-.2c.1.1.2.2.3.2.1 0 .2.1.4.1s.3-.1.5-.2.2-.3.2-.4c0-.2-.1-.3-.2-.4-.1-.1-.3-.1-.5-.1h-.2l.1-.3h.2c.2 0 .3 0 .4-.1s.2-.2.2-.4c0-.1 0-.3-.1-.3-.1-.1-.2-.1-.4-.1-.1 0-.2 0-.3.1-.1 0-.2.1-.3.2l-.2-.3c.3-.2.6-.4.9-.4-.1-.1.1-.1.2 0z" class="st6"/><path d="M135.8 8.6c0-.1 0-.1 0-.1s.4.2.4.6c0 .7-1.2 1.4-2.3 1.4-2.3 0-2.3-2-2.3-2.4 0-2 1.9-3.6 3.7-3.6 1.2 0 1.7.6 1.7 1.2 0 .5-.8.9-1 .9.1-.1.2-.4.2-.7s-.3-1-1-1-2.6.7-2.6 3.2c0 1.9 1.3 2 1.5 2 1.5-.1 1.7-1.3 1.7-1.5zM138.4 9.7c.1.1.3.2.3.3.1.1.1.3.1.4 0 .2 0 .4-.1.5-.1.2-.2.4-.4.6-.2.2-.4.5-.8.8h1.4l-.1.4H137v-.3c.4-.4.7-.7.9-.9.2-.2.3-.4.4-.5.1-.1.1-.3.1-.5s0-.3-.1-.4c-.1-.1-.2-.1-.4-.1-.1 0-.2 0-.3.1-.1.1-.2.1-.3.3l-.3-.2c.1-.2.3-.3.4-.4s.3-.1.5-.1c.2-.1.3-.1.5 0z" class="st4"/><path d="M118.7 6.5c0-.1 0-.1 0-.1s.4.2.4.6c0 .7-1.2 1.4-2.3 1.4-2.3 0-2.3-2-2.3-2.4 0-2 1.9-3.6 3.7-3.6 1.2 0 1.7.6 1.7 1.2 0 .5-.8.9-1 .9.1-.1.2-.4.2-.7s-.3-1-1-1-2.6.7-2.6 3.2c0 1.9 1.3 2 1.5 2 1.5-.1 1.7-1.3 1.7-1.5zM121.3 7.6v3.1h-.4V8l-.7.4-.2-.3 1-.6h.3z" class="st3"/><path d="M67.7 125.3H67c0-.2.9-23 3.7-47.2 3.8-32.6 8.9-52 15.3-57.8 1.5-1.3 3-1.9 4.6-1.8 4.9.3 7.9 3.5 12.9 8.7 5.3 5.5 12.5 13.2 26.6 22.8 28 19.2 100.2 13.8 100.9 13.7l.1.7c-.7.1-73.1 5.5-101.4-13.9-14.1-9.6-21.7-17.6-26.7-22.8-5-5.3-7.8-8.2-12.4-8.5-1.4-.1-2.7.5-4 1.6-15.1 13.5-18.9 103.6-18.9 104.5z" class="st6"/><path d="M118.1 112.6c-8.1 0-17.3-13.4-23.8-112.6h.7c6.4 99.2 15.7 111.9 23 111.9 3.4 0 7.6-4.2 13.3-10.1 6.8-6.9 16.1-16.3 29.7-24.6 26.7-16.2 93.4-11.4 94.1-11.3l-.1.7c-.7 0-67.1-4.8-93.6 11.2-13.5 8.2-22.8 17.6-29.6 24.5-5.9 6.2-10 10.3-13.7 10.3z" class="st5"/></g></g><script xmlns=""/></svg>